<?xml version="1.0" encoding="UTF-8"?>
<!DOCTYPE svg PUBLIC "-//W3C//DTD SVG 1.1//EN" "http://www.w3.org/Graphics/SVG/1.1/DTD/svg11.dtd">
<svg xmlns="http://www.w3.org/2000/svg" version="1.1" width="172px" height="163px" style="shape-rendering:geometricPrecision; text-rendering:geometricPrecision; image-rendering:optimizeQuality; fill-rule:evenodd; clip-rule:evenodd" xmlns:xlink="http://www.w3.org/1999/xlink">
<g><path style="opacity:1" fill="#ffffff" d="M 1.5,-0.5 C 57.5,-0.5 113.5,-0.5 169.5,-0.5C 169.5,53.8333 169.5,108.167 169.5,162.5C 113.5,162.5 57.5,162.5 1.5,162.5C 1.5,108.167 1.5,53.8333 1.5,-0.5 Z"/></g>
<g><path style="opacity:1" fill="#5a7480" d="M 34.5,27.5 C 52.8109,25.4286 69.9776,28.762 86,37.5C 101.003,28.7816 117.17,25.6149 134.5,28C 144.946,28.8712 154.613,32.0378 163.5,37.5C 164.667,72.8286 164.833,108.162 164,143.5C 163.044,144.894 161.711,145.561 160,145.5C 134.831,135.318 110.164,136.318 86,148.5C 69.99,139.598 52.8233,136.431 34.5,139C 25.9419,140.97 17.6086,143.303 9.5,146C 9,145.5 8.5,145 8,144.5C 7.33333,108.833 7.33333,73.1667 8,37.5C 16.2554,32.404 25.0888,29.0707 34.5,27.5 Z"/></g>
<g><path style="opacity:1" fill="#ffffff" d="M -0.5,-0.5 C 0.166667,-0.5 0.833333,-0.5 1.5,-0.5C 1.5,53.8333 1.5,108.167 1.5,162.5C 0.833333,162.5 0.166667,162.5 -0.5,162.5C -0.5,108.167 -0.5,53.8333 -0.5,-0.5 Z"/></g>
<g><path style="opacity:1" fill="#ffffff" d="M 169.5,-0.5 C 170.167,-0.5 170.833,-0.5 171.5,-0.5C 171.5,53.8333 171.5,108.167 171.5,162.5C 170.833,162.5 170.167,162.5 169.5,162.5C 169.5,108.167 169.5,53.8333 169.5,-0.5 Z"/></g>
<g><path style="opacity:1" fill="#fcf9f5" d="M 149.5,45.5 C 150.158,72.854 149.491,99.854 147.5,126.5C 125.923,120.916 105.423,123.582 86,134.5C 85.3333,107.167 85.3333,79.8333 86,52.5C 106.214,40.7356 127.381,38.4023 149.5,45.5 Z"/></g>
<g><path style="opacity:1" fill="#aab5b9" d="M 149.5,45.5 C 150.498,72.6616 150.831,99.9949 150.5,127.5C 149.209,127.737 148.209,127.404 147.5,126.5C 149.491,99.854 150.158,72.854 149.5,45.5 Z"/></g>
<g><path style="opacity:1" fill="#5d7682" d="M 113.5,59.5 C 122.884,59.1841 132.218,59.6841 141.5,61C 142.456,64.3936 142.789,67.8936 142.5,71.5C 127.976,69.5152 113.642,70.3485 99.5,74C 97.2537,75.0395 95.087,76.2062 93,77.5C 92.2039,73.2452 92.3705,69.0785 93.5,65C 100.142,62.581 106.809,60.7477 113.5,59.5 Z"/></g>
<g><path style="opacity:1" fill="#5d7782" d="M 113.5,78.5 C 122.552,78.1929 131.552,78.6929 140.5,80C 142.362,83.1494 143.029,86.6494 142.5,90.5C 127.976,88.5152 113.642,89.3485 99.5,93C 97.2537,94.0395 95.087,95.2062 93,96.5C 92.2039,92.2452 92.3705,88.0785 93.5,84C 100.152,81.6269 106.819,79.7936 113.5,78.5 Z"/></g>
<g><path style="opacity:1" fill="#5d7682" d="M 113.5,97.5 C 122.879,97.2244 132.212,97.7244 141.5,99C 142.456,102.394 142.789,105.894 142.5,109.5C 132.516,108.537 122.516,108.37 112.5,109C 105.578,109.974 99.0783,112.141 93,115.5C 92.1735,111.459 92.3401,107.459 93.5,103.5C 100.026,100.606 106.693,98.6063 113.5,97.5 Z"/></g>
</svg>
